<svg fill="#B0A565" xmlns="http://www.w3.org/2000/svg" xmlns:xlink="http://www.w3.org/1999/xlink" version="1.1" x="0px" y="0px" viewBox="0 0 100 100" enable-background="new 0 0 100 100" xml:space="preserve"><g><path fill-rule="evenodd" clip-rule="evenodd" d="M50.004,94.736c-5.442,0.059-10.823-0.393-16.018-2.141   c-1.359-0.458-2.668-1.084-3.967-1.704c-4.574-2.184-6.007-6.41-6.892-10.907c-0.206-1.043-0.635-1.598-1.51-2.095   C14.432,73.8,8.832,68.305,6.383,60.165c-2.113-7.021-1.449-14.008,0.796-20.85C13.848,18.988,28.093,7.847,49.112,5.03   c3.95,0.641,8.033,0.846,11.83,1.996c19.681,5.96,30.737,19.725,34.085,39.605c2.223,13.195-3.154,23.442-14.557,30.274   c-2.611,1.564-3.973,3.4-4.467,6.184c-0.669,3.776-3.041,6.229-6.291,7.94c-5.146,2.711-10.77,3.378-16.46,3.697   C52.173,94.788,51.087,94.736,50.004,94.736z M50.356,8.346c-6.08,0.084-11.48,1.685-16.24,5.216   c-10.854,8.053-11.911,22.652-2.327,31.919c9.849,9.523,26.832,9.535,36.7,0.023c9.041-8.714,8.729-22.372-0.719-30.651   C62.739,10.445,56.792,8.474,50.356,8.346z M49.958,92.563c3.834-0.411,7.717-0.572,11.493-1.29   c6.118-1.162,11.336-3.421,12.855-10.592c1.129-5.331-0.205-8.507-5.362-10.183c-0.686-0.223-1.359-0.48-2.044-0.704   c-5.104-1.662-10.257-3.049-15.676-3.229c-7.635-0.253-14.751,1.954-21.785,4.527c-1.963,0.719-3.635,2.088-3.898,4.251   c-0.563,4.632,0.248,9.031,3.999,12.189c1.563,1.316,3.623,2.171,5.59,2.852C39.909,92.037,44.912,92.29,49.958,92.563z    M14.823,28.826c-7.035,10.546-8.949,25.943-4.739,33.212C9.911,50.748,11.139,39.808,14.823,28.826z M90.763,61.861   c4.162-11.72,1.094-22.402-4.692-32.688C89.473,39.808,90.7,50.747,90.763,61.861z"></path><path fill-rule="evenodd" clip-rule="evenodd" d="M37.641,76.148c0.438-1.996,0.78-3.911,1.32-5.77   c0.149-0.515,0.849-1.116,1.367-1.191c0.351-0.05,1.022,0.676,1.211,1.181c1.433,3.855,1.438,7.753-0.002,11.605   c-0.196,0.524-0.86,1.116-1.378,1.191c-0.351,0.051-1.063-0.683-1.2-1.181C38.43,80.068,38.067,78.107,37.641,76.148z"></path><path fill-rule="evenodd" clip-rule="evenodd" d="M62.056,76.163c-0.448,2.008-0.817,3.967-1.358,5.878   c-0.138,0.487-0.815,1.131-1.25,1.136c-0.43,0.005-1.08-0.628-1.267-1.121c-1.483-3.9-1.479-7.844-0.009-11.746   c0.187-0.497,0.826-1.132,1.261-1.137c0.43-0.004,1.119,0.638,1.257,1.122C61.234,72.205,61.606,74.164,62.056,76.163z"></path></g></svg>